#!OML:ASF H:\Terrain\Walking\May29\JustinRory\Justin.ASF
:FULLY-SPECIFIED
:DEGREES
82
root 8.71511 17.5116 5.6137 -167.084 -64.1274 171.667
lowerback 10.244 -3.16645 -4.05435
upperback 4.76083 -4.9145 6.01688
thorax 0.147251 -2.80851 9.12319
lowerneck -3.28705 -13.6822 -15.3226
upperneck 13.1949 -19.4775 11.3671
head 7.18633 -9.59827 4.24605
rclavicle -7.95139e-016 -1.27222e-014
rhumerus -8.08282 -12.5292 -69.4487
rradius 77.7559
rwrist -39.264
rhand -15.8974 20.7042
rfingers 7.12502
rthumb 10.2991 -9.02367
lclavicle -7.95139e-016 -1.27222e-014
lhumerus 11.5628 -47.3067 94.0018
lradius 53.4079
lwrist -1.66269
lhand 0.933453 32.8572
lfingers 7.12502
lthumb 26.4842 61.0264
rfemur -23.6552 -7.39426 5.62203
rtibia 34.9367
rfoot -10.0966 -2.22626
rtoes -13.81
lfemur -13.5315 8.98338 -14.3874
ltibia 41.9521
lfoot -18.2854 6.67592
ltoes -7.2692
83
root 8.69859 17.5128 5.65342 -167.093 -63.962 171.649
lowerback 10.139 -3.21038 -4.67468
upperback 4.78277 -5.03463 6.14885
thorax 0.323347 -2.89556 9.62904
lowerneck -3.23006 -13.6228 -15.5709
upperneck 12.9847 -19.344 11.353
head 7.11428 -9.54797 4.30215
rclavicle 0 -1.90833e-014
rhumerus -7.90836 -12.5802 -69.1916
rradius 78.2414
rwrist -39.239
rhand -15.7465 19.8318
rfingers 7.12502
rthumb 10.4447 -9.88877
lclavicle 0 -1.90833e-014
lhumerus 11.7061 -46.9363 94.1903
lradius 54.0523
lwrist -1.72981
lhand 1.26877 31.9113
lfingers 7.12502
lthumb 26.8051 60.0318
rfemur -23.6337 -7.79738 5.59951
rtibia 34.9659
rfoot -10.3077 -2.13862
rtoes -16.5561
lfemur -13.5144 9.03506 -14.169
ltibia 42.1449
lfoot -18.1975 6.62646
ltoes -7.21997
84
root 8.67877 17.4901 5.74592 -166.71 -63.4236 171.63
lowerback 10.4277 -3.5198 -3.13817
upperback 4.10045 -5.19838 4.93761
thorax -0.793593 -2.82469 7.49693
lowerneck -2.48062 -13.3687 -15.0718
upperneck 13.3312 -19.3239 11.8592
head 7.09542 -9.53828 4.44691
rclavicle 9.18385e-014 -1.43125e-014
rhumerus -9.94864 -13.2973 -70.4489
rradius 79.0768
rwrist -39.4178
rhand -14.5443 20.7386
rfingers 7.12502
rthumb 11.6042 -8.92015
lclavicle 9.18385e-014 -1.43125e-014
lhumerus 10.007 -47.2157 93.9488
lradius 54.868
lwrist -1.67689
lhand 1.37736 31.9158
lfingers 7.12502
lthumb 26.909 60.0203
rfemur -24.2592 -7.95751 5.09871
rtibia 34.8604
rfoot -10.0671 -1.12689
rtoes -12.1506
lfemur -14.0774 9.16372 -14.3413
ltibia 42.5237
lfoot -18.0049 6.87151
ltoes -6.36448
85
root 8.66023 17.4683 5.78708 -167.44 -63.2863 172.4
lowerback 9.96247 -3.24939 -4.15714
upperback 4.34879 -4.9746 5.75251
thorax -0.138757 -2.79148 8.89339
lowerneck -1.99286 -13.6187 -15.7826
upperneck 12.1959 -19.5264 12.0004
head 6.76569 -9.66983 4.61211
rclavicle -5.96354e-014 3.02153e-014
rhumerus -10.1482 -13.7448 -69.1807
rradius 79.8392
rwrist -38.9543
rhand -14.5575 19.8439
rfingers 7.12502
rthumb 11.5915 -9.81553
lclavicle -5.96354e-014 3.02153e-014
lhumerus 10.5247 -46.7924 94.9192
lradius 55.4316
lwrist -1.81393
lhand 1.2257 32.1249
lfingers 7.12502
lthumb 26.7638 60.2516
rfemur -24.1107 -7.09035 4.93464
rtibia 34.4979
rfoot -10.0099 -0.838555
rtoes -1.78614
lfemur -14.052 9.38466 -13.6682
ltibia 42.8604
lfoot -18.0712 6.50797
ltoes -5.85454
86
root 8.64024 17.4592 5.83434 -167.901 -63.2551 172.402
lowerback 10.3145 -3.1808 -4.46946
upperback 4.49258 -4.93066 5.66321
thorax -0.168357 -2.78057 8.99793
lowerneck -1.71127 -13.7261 -15.7134
upperneck 11.6071 -19.6759 12.2921
head 6.57643 -9.73568 4.70442
rclavicle 1.27222e-014 -6.52014e-014
rhumerus -10.5807 -14.4891 -68.9322
rradius 80.128
rwrist -37.5652
rhand -15.5876 18.6448
rfingers 7.12502
rthumb 10.598 -11.068
lclavicle 1.27222e-014 -6.52014e-014
lhumerus 10.3393 -46.8117 95.0504
lradius 56.0222
lwrist -1.74926
lhand 0.79711 31.6113
lfingers 7.12502
lthumb 26.3536 59.8002
rfemur -23.6108 -7.29645 4.8347
rtibia 33.9212
rfoot -9.33779 -1.10782
rtoes -6.7178
lfemur -13.683 9.2013 -13.3482
ltibia 43.3104
lfoot -18.2933 6.26153
ltoes -4.44832
87
root 8.61585 17.4614 5.89438 -167.834 -63.0935 172.196
lowerback 10.6165 -3.23915 -4.09667
upperback 4.28565 -4.9385 5.01911
thorax -0.647824 -2.72481 8.11935
lowerneck -1.54557 -13.7027 -15.3698
upperneck 11.7751 -19.7904 12.6609
head 6.62169 -9.77389 4.76651
rclavicle 1.94809e-014 3.49861e-014
rhumerus -11.4936 -15.5155 -69.1243
rradius 80.285
rwrist -36.7114
rhand -15.8753 18.3024
rfingers 7.12502
rthumb 10.3205 -11.4244
lclavicle 1.94809e-014 3.49861e-014
lhumerus 9.33209 -47.1366 94.9547
lradius 56.7019
lwrist -1.55451
lhand 0.454361 31.1301
lfingers 7.12502
lthumb 26.0255 59.3676
rfemur -23.4415 -7.76584 4.7041
rtibia 33.3777
rfoot -8.73675 -1.25681
rtoes -14.341
lfemur -13.6909 8.85892 -13.2852
ltibia 43.6627
lfoot -18.4485 6.28902
ltoes -2.07218
88
root 8.59517 17.4572 5.95992 -168.547 -62.9479 173.156
lowerback 10.5133 -3.33693 -3.51956
upperback 4.08491 -4.9866 4.78777
thorax -0.869245 -2.71473 7.54417
lowerneck -1.37605 -13.6475 -15.2935
upperneck 11.8919 -19.7951 12.797
head 6.63693 -9.77917 4.80871
rclavicle -2.10712e-014 -1.43125e-014
rhumerus -12.2186 -16.2552 -69.0263
rradius 80.6088
rwrist -37.2567
rhand -14.7721 18.7087
rfingers 7.12502
rthumb 11.3845 -10.9623
lclavicle -2.10712e-014 -1.43125e-014
lhumerus 8.35954 -47.0154 95.1292
lradius 57.5089
lwrist -1.24431
lhand 0.631148 30.998
lfingers 7.12502
lthumb 26.1948 59.2105
rfemur -23.374 -7.12406 4.72453
rtibia 33.0261
rfoot -8.81192 -1.21563
rtoes -5.04458
lfemur -13.9697 8.83098 -12.6831
ltibia 43.9381
lfoot -18.27 6.47559
ltoes -2.52944
89
root 8.57641 17.4479 5.99091 -169.862 -63.4453 174.442
lowerback 10.4136 -3.54859 -3.35696
upperback 4.11374 -5.26019 4.95664
thorax -0.739843 -2.86223 7.64576
lowerneck -1.15224 -13.7057 -15.2802
upperneck 11.6711 -19.8629 12.7367
head 6.53133 -9.82505 4.79978
rclavicle -4.8901e-014 -4.29375e-014
rhumerus -12.7603 -16.4542 -68.6275
rradius 81.0998
rwrist -37.8138
rhand -14.2278 18.8766
rfingers 7.12502
rthumb 11.9094 -10.7646
lclavicle -4.8901e-014 -4.29375e-014
lhumerus 7.78889 -46.7568 95.2252
lradius 58.3115
lwrist -0.769344
lhand 0.859154 30.7536
lfingers 7.12502
lthumb 26.413 58.9335
rfemur -22.6602 -6.38897 5.04903
rtibia 32.8351
rfoot -9.37355 -1.69461
rtoes 3.85496
lfemur -13.9216 8.71596 -11.5822
ltibia 44.1463
lfoot -17.9652 6.54198
ltoes -6.62263
90
root 8.55496 17.4338 6.04012 -171.402 -63.4771 175.863
lowerback 10.5239 -3.51849 -3.11241
upperback 4.15873 -5.20878 5.08774
thorax -0.770538 -2.84091 7.65002
lowerneck -1.03371 -13.8652 -15.2559
upperneck 11.5167 -20.0824 12.7593
head 6.4944 -9.93372 4.78428
rclavicle -5.48646e-014 6.36111e-015
rhumerus -13.4713 -16.5788 -67.9309
rradius 81.6553
rwrist -37.5222
rhand -14.8977 18.3676
rfingers 7.12502
rthumb 11.2634 -11.31
lclavicle -5.48646e-014 6.36111e-015
lhumerus 7.20739 -46.7622 95.3542
lradius 58.9875
lwrist -0.362546
lhand 0.328899 30.4721
lfingers 7.12502
lthumb 25.9054 58.7272
rfemur -22.3738 -6.55737 5.76029
rtibia 32.7328
rfoot -9.09928 -2.06065
rtoes -7.3273
lfemur -13.6855 9.0611 -10.5242
ltibia 44.3465
lfoot -17.9697 6.47447
ltoes -8.33425
91
root 8.53253 17.4136 6.14543 -171.396 -63.0552 175.98
lowerback 10.4312 -3.43036 -3.04705
upperback 4.07593 -5.07269 4.99408
thorax -0.843164 -2.76112 7.49611
lowerneck -0.915744 -13.9058 -15.4073
upperneck 11.267 -20.137 12.9467
head 6.43974 -9.96305 4.86773
rclavicle 5.28767e-014 0
rhumerus -13.7963 -17.1564 -67.3777
rradius 81.8812
rwrist -36.5983
rhand -15.4842 17.7631
rfingers 7.12502
rthumb 10.6978 -11.9446
lclavicle 5.28767e-014 0
lhumerus 6.53748 -46.5255 95.6778
lradius 59.5088
lwrist -0.139444
lhand -2.84315 32.8404
lfingers 7.12502
lthumb 22.8645 61.505
rfemur -22.9204 -7.13807 5.64851
rtibia 32.7062
rfoot -8.28504 -1.67224
rtoes -17.0307
lfemur -13.8759 9.21578 -10.5468
ltibia 44.443
lfoot -18.0117 6.75553
ltoes -5.89731
